<svg xmlns="http://www.w3.org/2000/svg" width="976" height="929" viewBox="0 0 976 929" version="1.1">
	<path d="M 537.250 71.689 C 538.212 71.941, 539.788 71.941, 540.750 71.689 C 541.712 71.438, 540.925 71.232, 539 71.232 C 537.075 71.232, 536.288 71.438, 537.250 71.689 M 551.500 74 C 551.840 74.550, 553.104 74.968, 554.309 74.930 C 556.421 74.862, 556.428 74.829, 554.500 74 C 551.748 72.817, 550.769 72.817, 551.500 74 M 566.750 77.662 C 567.438 77.940, 568.563 77.940, 569.250 77.662 C 569.938 77.385, 569.375 77.158, 568 77.158 C 566.625 77.158, 566.063 77.385, 566.750 77.662 M 577 79.798 C 579.383 81.279, 584.693 82.338, 583.469 81.090 C 582.902 80.511, 580.877 79.774, 578.969 79.452 C 576.618 79.056, 575.984 79.167, 577 79.798 M 590 84.157 C 597.566 86.923, 601 87.941, 601 87.418 C 601 86.415, 589.553 82.006, 587.126 82.073 C 585.152 82.128, 585.867 82.646, 590 84.157 M 603.083 88.414 C 603.313 88.642, 609.761 91.357, 617.414 94.449 C 643.949 105.168, 672.807 122.239, 692.500 138.868 C 700.056 145.248, 718.213 163.506, 723.957 170.500 C 748.906 200.879, 765.780 238.689, 771.484 277 C 777.417 316.846, 772.517 360.647, 757.163 405 C 755.545 409.675, 748.976 428.800, 742.566 447.500 C 736.156 466.200, 728.639 488.025, 725.861 496 C 723.082 503.975, 717.523 520.175, 713.507 532 C 701.265 568.043, 695.975 580.174, 683.203 601.500 C 650.151 656.687, 596.982 697.175, 528.500 719.304 C 492.049 731.083, 463.666 735.672, 421 736.683 C 367.846 737.943, 324.409 731.675, 275 715.618 C 236.451 703.089, 199.648 683.402, 166.540 657.599 C 162.375 654.354, 158.638 652.044, 158.234 652.466 C 157.830 652.889, 158.339 653.744, 159.365 654.367 C 160.391 654.990, 162.984 657.158, 165.128 659.184 C 167.272 661.210, 171.495 664.281, 174.513 666.007 C 177.531 667.734, 180 669.800, 180 670.598 C 180 671.396, 181.228 672.517, 182.730 673.087 C 184.231 673.658, 185.693 674.434, 185.980 674.813 C 186.266 675.191, 189.968 677.262, 194.207 679.416 C 198.445 681.570, 202.138 683.917, 202.412 684.631 C 202.686 685.345, 206.169 687.571, 210.152 689.576 C 214.135 691.582, 219.217 694.395, 221.447 695.826 C 226.485 699.062, 234.758 703, 236.518 703 C 237.244 703, 239.112 703.645, 240.669 704.434 C 247.800 708.047, 254.775 710.941, 257.760 711.525 C 260.699 712.101, 264.807 713.708, 269.033 715.937 C 269.876 716.382, 272.126 717.080, 274.033 717.488 C 275.940 717.897, 277.950 718.535, 278.500 718.906 C 279.050 719.277, 282.200 720.379, 285.500 721.354 C 288.800 722.329, 292.850 723.597, 294.500 724.171 C 296.150 724.745, 299.300 725.533, 301.500 725.923 C 303.700 726.313, 306.483 727.164, 307.684 727.816 C 308.886 728.467, 311.193 729, 312.812 729 C 314.431 729, 317.273 729.625, 319.128 730.389 C 320.983 731.153, 324.862 732.095, 327.749 732.483 C 330.636 732.870, 333.250 733.595, 333.558 734.094 C 333.866 734.592, 338.029 735.020, 342.809 735.044 C 347.746 735.069, 353.228 735.710, 355.500 736.529 C 357.700 737.321, 362.031 737.977, 365.124 737.985 C 368.218 737.993, 372.662 738.675, 375 739.500 C 381.123 741.660, 435.952 741.660, 444 739.500 C 447.025 738.688, 453.100 738.012, 457.500 737.997 C 461.900 737.982, 467.300 737.321, 469.500 736.529 C 471.700 735.736, 476.650 735.052, 480.500 735.008 C 484.594 734.962, 488.538 734.336, 490 733.500 C 491.375 732.714, 494.975 732.039, 498 732 C 501.025 731.961, 504.625 731.286, 506 730.500 C 507.375 729.714, 510.075 729.041, 512 729.004 C 513.925 728.967, 516.374 728.276, 517.441 727.468 C 518.509 726.661, 520.395 726, 521.632 726 C 522.870 726, 524.129 725.601, 524.430 725.113 C 524.731 724.626, 526.514 723.939, 528.390 723.587 C 530.267 723.234, 533.764 721.904, 536.160 720.630 C 538.556 719.356, 542.121 718.012, 544.081 717.645 C 546.041 717.277, 551.306 715.181, 555.781 712.988 C 560.256 710.795, 564.697 709, 565.650 709 C 569.332 709, 596.565 694.439, 602.663 689.209 C 606.356 686.042, 609.241 684.159, 613.500 682.136 C 614.600 681.614, 617.223 679.588, 619.330 677.635 C 621.436 675.682, 624.024 673.810, 625.080 673.475 C 626.136 673.139, 627 672.490, 627 672.030 C 627 671.571, 628.237 670.684, 629.750 670.058 C 635.147 667.825, 637.891 665.918, 638.508 663.974 C 638.853 662.888, 639.514 662, 639.978 662 C 641.683 662, 649 656.603, 649 655.345 C 649 654.631, 650.107 653.320, 651.461 652.434 C 652.815 651.547, 654.173 650.030, 654.480 649.062 C 654.787 648.095, 656.155 646.795, 657.519 646.173 C 658.884 645.552, 660 644.347, 660 643.497 C 660 642.646, 661.112 641.528, 662.472 641.011 C 663.833 640.493, 665.224 638.955, 665.567 637.588 C 665.910 636.222, 667.273 634.396, 668.595 633.530 C 669.918 632.663, 671 631.095, 671 630.045 C 671 628.995, 672.292 627.217, 673.870 626.092 C 675.449 624.968, 677.001 622.746, 677.319 621.154 C 677.657 619.467, 678.691 618.052, 679.800 617.763 C 681.125 617.416, 681.902 616.012, 682.363 613.133 C 682.726 610.860, 683.436 609, 683.940 609 C 685.704 609, 688 605.836, 688 603.404 C 688 601.741, 688.766 600.659, 690.375 600.047 C 692.001 599.429, 692.953 598.066, 693.392 595.725 C 693.824 593.419, 694.842 591.937, 696.517 591.174 C 698.614 590.219, 699 589.358, 699 585.636 C 699 582.106, 699.470 580.922, 701.367 579.679 C 703.168 578.499, 703.845 576.970, 704.199 573.277 C 704.538 569.754, 705.396 567.695, 707.333 565.758 C 709.501 563.590, 710 562.169, 710 558.160 C 710 554.005, 710.393 552.973, 712.500 551.592 C 714.475 550.298, 715 549.116, 715 545.968 C 715 542.903, 715.693 541.256, 718 538.843 C 720.612 536.109, 721 534.970, 721 530.026 C 721 525.336, 721.415 523.959, 723.385 522.108 C 725.252 520.354, 725.864 518.552, 726.208 513.800 C 726.582 508.637, 727.046 507.442, 729.323 505.783 C 731.742 504.021, 732 503.218, 732 497.457 C 732 492.038, 732.359 490.737, 734.392 488.790 C 736.230 487.031, 736.888 485.147, 737.232 480.658 C 737.647 475.245, 738.441 473.753, 741.472 472.692 C 742.006 472.505, 742.617 468.918, 742.829 464.721 C 743.162 458.129, 743.522 456.888, 745.478 455.606 C 747.238 454.453, 747.841 452.935, 748.184 448.794 C 748.523 444.704, 749.251 442.840, 751.313 440.778 C 753.718 438.373, 754 437.355, 754 431.086 C 754 425.013, 754.317 423.776, 756.383 421.790 C 758.017 420.220, 758.922 417.999, 759.263 414.726 C 759.623 411.267, 760.481 409.283, 762.380 407.524 C 764.679 405.393, 765 404.314, 765 398.722 C 765 393.306, 765.357 392.013, 767.375 390.118 C 769.379 388.235, 769.820 386.670, 770.201 380.093 C 770.543 374.184, 771.226 371.371, 773.024 368.462 C 775.305 364.770, 775.427 363.583, 776.223 337.172 C 776.678 322.073, 776.684 299.543, 776.236 287.105 C 775.467 265.733, 775.295 264.319, 773.120 261.376 C 771.245 258.840, 770.788 256.865, 770.659 250.738 C 770.495 242.972, 771.611 240.349, 776.105 237.944 C 778.662 236.576, 783.764 239.015, 785.102 242.245 C 785.747 243.804, 787.138 245.684, 788.193 246.423 C 789.247 247.161, 790.447 249.026, 790.860 250.568 C 791.636 253.471, 794.002 255.180, 793.997 252.833 C 793.994 250.770, 789.238 233.504, 787.581 229.539 L 786.102 226 779.085 226 C 771.476 226, 765.417 223.889, 764.471 220.909 C 764.169 219.957, 762.815 218.453, 761.461 217.566 C 759.996 216.607, 759 214.998, 759 213.592 C 759 212.176, 757.999 210.574, 756.500 209.592 C 755.125 208.691, 754 207.024, 754 205.887 C 754 204.750, 752.650 202.635, 751 201.187 C 749.332 199.724, 748 197.553, 748 196.300 C 748 194.999, 746.943 193.353, 745.500 192.408 C 743.814 191.303, 743 189.854, 743 187.956 C 743 185.230, 740.802 182, 738.948 182 C 738.447 182, 737.760 180.891, 737.420 179.536 C 737.079 178.181, 735.920 176.792, 734.843 176.450 C 733.766 176.108, 732.456 174.699, 731.931 173.318 C 731.406 171.937, 730.169 170.595, 729.182 170.337 C 728.196 170.079, 726.890 168.548, 726.281 166.934 C 725.672 165.320, 724.460 164, 723.587 164 C 722.714 164, 722 163.529, 722 162.952 C 722 161.656, 712.446 152, 711.164 152 C 710.652 152, 709.999 151.105, 709.713 150.012 C 709.427 148.919, 708.025 147.580, 706.597 147.037 C 705.169 146.494, 704 145.379, 704 144.560 C 704 143.741, 703.016 142.544, 701.813 141.900 C 699.005 140.397, 697.405 139.141, 693.977 135.750 C 692.448 134.238, 690.773 133, 690.254 133 C 689.735 133, 688.495 132.100, 687.500 131 C 686.505 129.900, 685.275 129, 684.768 129 C 684.261 129, 682.587 127.741, 681.048 126.201 C 678.366 123.520, 664.593 115, 662.939 115 C 662.501 115, 661.545 114.438, 660.814 113.750 C 659.544 112.555, 657.341 111.368, 638 101.454 C 633.325 99.058, 626.658 96.161, 623.184 95.016 C 619.710 93.871, 616.110 92.554, 615.184 92.089 C 609.017 88.994, 601.312 86.654, 603.083 88.414 M 448 144.024 C 415.122 146.344, 377.247 154.980, 345 167.511 C 306.598 182.434, 267.984 208.058, 236.514 239.504 C 203.038 272.954, 178.990 309.273, 161.696 352.500 C 156.213 366.207, 153.888 373.783, 148.040 397 C 140.258 427.902, 138.363 454.127, 142.116 479 C 146.215 506.171, 160.737 537.784, 180.408 562.363 C 184.114 566.994, 209.236 592.523, 213.534 596.027 C 226.375 606.493, 240.861 616.472, 241.821 615.513 C 242.812 614.521, 236.222 609.309, 230.388 606.472 C 224.957 603.830, 220 599.799, 220 598.023 C 220 597.433, 218.875 596.523, 217.500 596 C 216.125 595.477, 215 594.340, 215 593.473 C 215 592.606, 213.650 591.425, 212 590.850 C 210.350 590.275, 209 589.387, 209 588.877 C 209 588.368, 207.875 587.523, 206.500 587 C 205.125 586.477, 204 585.354, 204 584.503 C 204 583.653, 202.910 582.460, 201.577 581.853 C 200.244 581.246, 198.862 579.568, 198.505 578.125 C 198.148 576.681, 196.651 574.297, 195.178 572.827 C 193.705 571.356, 192.050 569.673, 191.500 569.086 C 190.950 568.498, 188.587 566.249, 186.250 564.087 C 183.912 561.926, 182 559.547, 182 558.801 C 182 558.055, 180.650 556.261, 179 554.813 C 176.706 552.800, 176 551.330, 176 548.569 C 176 545.687, 175.495 544.727, 173.500 543.818 C 172.125 543.192, 171 541.855, 171 540.847 C 171 539.840, 169.650 537.813, 168 536.342 C 166.350 534.872, 165 532.834, 165 531.813 C 165 530.792, 163.875 529.445, 162.500 528.818 C 160.213 527.776, 160 527.134, 160 521.292 C 160 515.625, 159.693 514.620, 157.279 512.383 C 154.907 510.184, 154.506 508.939, 154.154 502.680 C 153.830 496.921, 153.273 494.933, 151.341 492.633 L 148.933 489.766 149.216 451.487 C 149.488 414.822, 149.584 413.115, 151.500 411.002 C 153.144 409.189, 153.593 406.928, 154.020 398.293 C 154.499 388.634, 154.740 387.629, 157.020 385.783 C 159.240 383.986, 159.537 382.892, 159.854 375.342 C 160.168 367.888, 160.472 366.737, 162.478 365.422 C 164.122 364.345, 164.892 362.653, 165.272 359.280 C 165.667 355.773, 166.439 354.156, 168.398 352.728 C 170.504 351.195, 171 350.012, 171 346.532 C 171 343.047, 171.475 341.919, 173.500 340.592 C 175.365 339.370, 176 338.080, 176 335.511 C 176 333.035, 176.842 331.208, 179 329 C 180.650 327.312, 182 324.854, 182 323.537 C 182 321.147, 184.314 318, 186.071 318 C 186.582 318, 187 316.975, 187 315.723 C 187 314.444, 188.316 312.291, 190 310.813 C 191.843 309.196, 193 307.209, 193 305.662 C 193 303.168, 195.279 300, 197.071 300 C 197.582 300, 198 298.834, 198 297.410 C 198 295.783, 199.116 293.840, 201 292.187 C 202.650 290.739, 204 288.765, 204 287.800 C 204 286.836, 205.082 285.337, 206.405 284.470 C 207.727 283.604, 209.072 281.849, 209.393 280.570 C 209.714 279.292, 211.107 277.505, 212.488 276.600 C 213.870 275.694, 215 274.341, 215 273.592 C 215 272.843, 216.125 271.493, 217.500 270.592 C 218.875 269.691, 220 268.280, 220 267.456 C 220 266.631, 221.116 265.448, 222.481 264.827 C 223.845 264.205, 225.229 262.853, 225.557 261.822 C 225.884 260.790, 227.190 259.267, 228.458 258.435 C 229.727 257.604, 231.015 255.676, 231.320 254.151 C 231.655 252.474, 232.887 250.917, 234.437 250.211 C 235.915 249.537, 237 248.216, 237 247.089 C 237 246.004, 237.902 244.848, 239.027 244.492 C 240.141 244.138, 241.768 242.757, 242.642 241.424 C 243.515 240.091, 244.741 238.985, 245.365 238.967 C 245.989 238.948, 248.075 237.150, 250 234.970 C 251.925 232.790, 255.064 229.542, 256.975 227.753 C 258.886 225.964, 261.739 223.171, 263.316 221.547 C 266.043 218.737, 267.645 217.604, 272.731 214.888 C 273.958 214.233, 275.200 212.977, 275.492 212.098 C 275.784 211.219, 279.055 208.735, 282.761 206.578 C 286.468 204.421, 291.525 201.045, 294 199.074 C 298.972 195.116, 301.045 193.757, 305.500 191.532 C 307.150 190.708, 313.450 187.355, 319.500 184.081 C 334.378 176.029, 342.906 171.875, 346.500 170.927 C 351.615 169.578, 357.011 167.389, 358.232 166.168 C 358.874 165.526, 360.645 165, 362.166 165 C 364.627 165, 369.114 163.468, 374.236 160.878 C 375.191 160.395, 376.870 160, 377.966 160 C 379.063 160, 381.656 159.382, 383.730 158.627 C 385.803 157.872, 389.975 156.722, 393 156.072 C 396.025 155.421, 401.650 154.208, 405.500 153.375 C 409.350 152.542, 415.793 151.441, 419.818 150.929 C 423.843 150.417, 427.976 149.548, 429.003 148.999 C 430.029 148.449, 434.836 147.967, 439.684 147.927 C 444.533 147.887, 450.975 147.448, 454 146.952 C 465.564 145.055, 473.751 144.752, 480.583 145.966 C 484.387 146.642, 494.025 147.548, 502 147.978 C 509.975 148.409, 518.300 149.255, 520.500 149.857 C 522.700 150.459, 526.386 150.963, 528.691 150.976 C 530.996 150.989, 533.138 151.415, 533.452 151.922 C 533.765 152.428, 537.004 153.162, 540.649 153.553 C 544.295 153.943, 548.453 154.876, 549.889 155.625 C 552.782 157.135, 559.604 157.571, 557 156.080 C 553.212 153.911, 524.248 147.829, 506.985 145.577 C 492.151 143.642, 463.944 142.900, 448 144.024 M 559.550 157.922 C 560.072 158.429, 562.300 159.105, 564.500 159.423 L 568.500 160.002 565.500 158.546 C 562.104 156.898, 558.058 156.474, 559.550 157.922 M 570.567 160.888 C 571.629 161.860, 577.823 163.490, 576.884 162.550 C 576.547 162.214, 574.778 161.510, 572.953 160.987 C 571.128 160.463, 570.055 160.419, 570.567 160.888 M 579 164 C 579.825 164.533, 581.175 164.945, 582 164.914 C 582.989 164.878, 582.819 164.567, 581.500 164 C 578.751 162.819, 577.172 162.819, 579 164 M 593 169.422 C 593 169.654, 595.587 171.142, 598.750 172.728 C 601.913 174.315, 608.100 177.577, 612.500 179.979 C 616.900 182.380, 619.934 183.654, 619.242 182.811 C 618.098 181.414, 595.063 169, 593.617 169 C 593.277 169, 593 169.190, 593 169.422 M 180.500 184 C 180.160 184.550, 180.332 185, 180.882 185 C 181.432 185, 182.160 184.550, 182.500 184 C 182.840 183.450, 182.668 183, 182.118 183 C 181.568 183, 180.840 183.450, 180.500 184 M 625.959 188.924 C 626.570 190.066, 627.509 191, 628.045 191 C 628.582 191, 631.308 192.608, 634.104 194.573 C 636.900 196.538, 639.352 197.981, 639.554 197.779 C 640.008 197.325, 630.355 189.761, 627.174 188.079 C 624.996 186.927, 624.919 186.981, 625.959 188.924 M 175.459 189.067 C 174.383 190.808, 175.608 191.177, 176.980 189.524 C 177.769 188.574, 177.845 188, 177.181 188 C 176.597 188, 175.821 188.480, 175.459 189.067 M 169.584 195.641 C 169.057 197.014, 169.204 197.076, 170.477 196.019 C 172.212 194.579, 172.393 194, 171.107 194 C 170.616 194, 169.931 194.739, 169.584 195.641 M 642.497 200.995 C 642.835 201.542, 644.099 202.507, 645.306 203.140 C 647.485 204.283, 647.487 204.276, 645.595 202.146 C 643.686 199.996, 641.341 199.125, 642.497 200.995 M 653.046 209.840 C 653.021 210.577, 654.350 212.365, 656 213.813 C 657.650 215.261, 659 217.004, 659 217.688 C 659 218.910, 662.817 221.516, 663.544 220.790 C 663.748 220.585, 661.481 217.736, 658.504 214.459 C 655.527 211.181, 653.071 209.103, 653.046 209.840 M 664.638 223.500 C 664.955 224.325, 665.671 225, 666.229 225 C 666.815 225, 666.718 224.365, 666 223.500 C 665.315 222.675, 664.599 222, 664.409 222 C 664.219 222, 664.322 222.675, 664.638 223.500 M 793.411 230.829 C 794.696 232.848, 799.338 239.900, 803.726 246.500 C 827.963 282.951, 850.122 334.410, 858.845 374.500 C 867.551 414.517, 870.169 432.581, 871.975 465.108 C 873.726 496.660, 870.409 537.022, 863.548 567.642 C 857.153 596.182, 855.701 601.613, 850.478 616.519 C 827.710 681.493, 795.225 732.734, 747.714 778.612 C 683.817 840.314, 603.966 878.653, 515.793 889.964 C 487.913 893.541, 447.590 893.359, 417.500 889.520 C 387.607 885.707, 362.108 879.254, 322.491 865.478 C 305.753 859.658, 268.771 840.744, 249.500 828.148 C 238.418 820.905, 219.148 807.205, 213.911 802.846 C 210.660 800.141, 208 798.345, 208 798.856 C 208 799.367, 210.250 801.501, 213 803.598 C 215.750 805.695, 218 807.737, 218 808.135 C 218 809.029, 226.741 815, 228.050 815 C 228.573 815, 229 815.418, 229 815.929 C 229 816.799, 237.457 823, 238.642 823 C 238.941 823, 240.216 823.787, 241.477 824.750 C 242.737 825.712, 244.783 827.175, 246.023 828 C 247.264 828.825, 249.453 830.400, 250.889 831.500 C 254.826 834.516, 259.319 837.551, 261 838.331 C 261.825 838.713, 264.750 840.375, 267.500 842.022 C 270.250 843.670, 280.375 848.868, 290 853.574 C 299.625 858.279, 308.281 862.550, 309.236 863.065 C 310.191 863.579, 311.473 864, 312.085 864 C 313.121 864, 316.156 865.196, 323.500 868.497 C 325.150 869.238, 329.324 870.783, 332.775 871.930 C 336.227 873.077, 339.827 874.401, 340.775 874.873 C 343.096 876.029, 348.818 878.005, 352.524 878.931 C 354.186 879.347, 356.519 880.208, 357.708 880.844 C 358.896 881.480, 361.136 882.016, 362.684 882.035 C 364.233 882.055, 366.625 882.714, 368 883.500 C 369.375 884.286, 372.131 884.945, 374.124 884.965 C 376.118 884.984, 379.662 885.675, 382 886.500 C 384.338 887.325, 387.715 888, 389.504 888 C 391.292 888, 394.371 888.675, 396.346 889.500 C 398.320 890.325, 402.005 891, 404.534 891 C 407.062 891, 410.114 891.544, 411.316 892.208 C 412.517 892.873, 418.450 893.757, 424.500 894.174 C 430.550 894.591, 438.650 895.374, 442.500 895.914 C 451.756 897.214, 497.269 897.194, 503 895.887 C 505.475 895.323, 512 894.511, 517.500 894.082 C 523 893.654, 528.767 892.785, 530.315 892.151 C 531.863 891.518, 535.265 891, 537.874 891 C 540.497 891, 543.486 890.344, 544.559 889.532 C 545.626 888.724, 548.015 888.049, 549.866 888.032 C 551.717 888.014, 555.317 887.356, 557.866 886.569 C 560.415 885.782, 564.525 884.636, 567 884.023 C 569.475 883.410, 572.850 882.500, 574.500 882 C 576.150 881.500, 579.525 880.566, 582 879.924 C 584.475 879.281, 587.694 878.135, 589.154 877.378 C 590.614 876.620, 593.116 876, 594.713 876 C 596.311 876, 598.491 875.339, 599.559 874.532 C 600.626 873.724, 602.458 873.049, 603.628 873.032 C 606 872.996, 610.562 871.272, 619.500 867.033 C 622.800 865.467, 627.525 863.597, 630 862.876 C 634.342 861.612, 659.163 849.383, 671.500 842.431 C 674.800 840.571, 678.400 838.581, 679.500 838.008 C 687.098 834.052, 690.773 831.638, 692.606 829.400 C 694.604 826.960, 696.997 825.275, 701.500 823.136 C 702.600 822.614, 705.244 820.569, 707.376 818.593 C 709.507 816.617, 711.576 815, 711.973 815 C 712.369 815, 713.732 814.100, 715 813 C 716.268 811.900, 717.837 811, 718.487 811 C 719.136 811, 721.596 809.220, 723.953 807.044 C 726.310 804.868, 728.522 802.948, 728.869 802.778 C 732.625 800.935, 737.026 797.492, 737.489 796.035 C 737.806 795.035, 738.985 793.976, 740.107 793.682 C 741.230 793.389, 742.389 792.230, 742.682 791.107 C 742.976 789.985, 743.955 788.817, 744.858 788.511 C 747.187 787.724, 759 776.550, 759 775.134 C 759 774.487, 760.075 773.467, 761.390 772.868 C 762.704 772.269, 764.252 770.743, 764.829 769.476 C 765.406 768.210, 766.806 766.879, 767.939 766.519 C 769.073 766.160, 770 765.231, 770 764.456 C 770 763.680, 771.056 762.354, 772.346 761.509 C 773.636 760.664, 775.201 758.853, 775.824 757.486 C 776.447 756.119, 777.653 755, 778.503 755 C 779.354 755, 780.498 753.819, 781.047 752.376 C 781.596 750.933, 783.159 748.876, 784.522 747.804 C 785.885 746.732, 787 744.976, 787 743.903 C 787 742.740, 788.012 741.566, 789.500 741 C 790.933 740.455, 792 739.254, 792 738.185 C 792 737.160, 793.134 735.804, 794.520 735.173 C 795.906 734.541, 797.460 732.921, 797.972 731.573 C 798.485 730.225, 799.826 728.628, 800.952 728.026 C 802.078 727.423, 803 726.061, 803 724.999 C 803 723.938, 804.350 721.688, 806 720 C 807.650 718.312, 809 716.098, 809 715.081 C 809 714.063, 810.070 712.529, 811.378 711.672 C 812.805 710.737, 814.023 708.691, 814.423 706.557 C 814.790 704.601, 815.488 703, 815.974 703 C 817.709 703, 820 699.815, 820 697.404 C 820 695.707, 820.771 694.657, 822.500 694 C 824.011 693.426, 825 692.262, 825 691.059 C 825 689.965, 826.350 687.688, 828 686 C 830.158 683.792, 831 681.965, 831 679.489 C 831 676.968, 831.636 675.629, 833.376 674.489 C 835.201 673.294, 835.863 671.780, 836.229 667.967 C 836.585 664.261, 837.378 662.379, 839.353 660.549 C 841.464 658.592, 842 657.180, 842 653.571 C 842 649.912, 842.454 648.748, 844.374 647.490 C 845.849 646.524, 846.968 644.586, 847.326 642.377 C 847.644 640.418, 849.049 637.757, 850.452 636.457 C 852.683 634.389, 853 633.281, 853 627.541 C 853 621.796, 853.309 620.718, 855.500 618.813 C 857.565 617.017, 858 615.738, 858 611.457 C 858 607.205, 858.538 605.598, 861 602.500 C 863.794 598.985, 864 598.149, 864 590.356 C 864 582.675, 864.206 581.808, 866.500 579.813 C 868.725 577.879, 869.001 576.861, 869.006 570.570 C 869.011 563.220, 870.470 556, 871.949 556 C 873.970 556, 875 548.743, 875 534.500 C 875 520.205, 875.149 519.017, 877.500 514.596 L 880 509.894 879.978 480.697 C 879.957 452.871, 879.855 451.289, 877.799 447 C 875.984 443.215, 875.548 440.037, 875.055 427 C 874.519 412.821, 874.270 411.233, 872.137 408.372 C 870.091 405.628, 869.724 403.696, 869.152 392.641 C 868.554 381.088, 868.313 379.906, 866.250 378.462 C 864.288 377.088, 864 376.007, 864 370.020 C 864 364.022, 863.659 362.748, 861.305 359.950 C 859.181 357.426, 858.523 355.449, 858.201 350.623 C 857.879 345.793, 857.286 344.016, 855.396 342.210 C 853.348 340.252, 853 338.974, 853 333.412 C 853 327.787, 852.667 326.596, 850.545 324.629 C 849.194 323.378, 847.657 320.431, 847.129 318.080 C 846.598 315.714, 845.239 313.155, 844.085 312.347 C 842.920 311.531, 842 309.787, 842 308.396 C 842 306.992, 840.856 304.844, 839.380 303.476 C 837.565 301.795, 836.607 299.690, 836.262 296.631 C 835.877 293.214, 835.224 291.968, 833.382 291.128 C 831.332 290.194, 831 289.341, 831 285.012 C 831 280.787, 830.520 279.479, 828 276.843 C 826.187 274.946, 825 272.638, 825 271.012 C 825 269.112, 824.265 267.986, 822.500 267.182 C 820.824 266.418, 820 265.236, 820 263.593 C 820 261.164, 817.704 258, 815.940 258 C 815.436 258, 814.731 256.169, 814.373 253.932 C 813.941 251.229, 812.931 249.345, 811.361 248.317 C 810.063 247.466, 809 245.952, 809 244.953 C 809 243.954, 807.650 242.175, 806 241 C 804.350 239.825, 803 238.429, 803 237.899 C 803 236.591, 796.117 229.783, 793.324 228.329 L 791.074 227.157 793.411 230.829 M 530.500 233 C 533.249 234.181, 534.828 234.181, 533 233 C 532.175 232.467, 530.825 232.055, 530 232.086 C 529.011 232.122, 529.181 232.433, 530.500 233 M 540 236 C 541.970 237.273, 544.287 237.273, 543.500 236 C 543.160 235.450, 541.896 235.007, 540.691 235.015 C 538.910 235.028, 538.781 235.212, 540 236 M 675.032 238.128 C 675.014 239.023, 675.675 240.315, 676.500 241 C 678.423 242.596, 678.443 240.968, 676.532 238.441 C 675.298 236.810, 675.059 236.760, 675.032 238.128 M 550 238.561 C 550 239.024, 555.411 241.373, 559.087 242.505 C 560.414 242.914, 561.164 242.894, 560.753 242.461 C 559.877 241.537, 550 237.955, 550 238.561 M 681 248.941 C 681 249.459, 681.445 250.157, 681.989 250.493 C 682.555 250.843, 682.723 250.442, 682.382 249.552 C 681.717 247.820, 681 247.503, 681 248.941 M 579.500 251.802 C 597.498 261.758, 600.493 263.213, 597.500 260.550 C 594.867 258.208, 576.988 248.970, 575.179 249.018 C 574.806 249.028, 576.750 250.281, 579.500 251.802 M 686.086 261 C 686.055 261.825, 686.467 263.175, 687 264 C 688.181 265.828, 688.181 264.249, 687 261.500 C 686.433 260.181, 686.122 260.011, 686.086 261 M 602 264.378 C 602 264.585, 605.712 267.279, 610.250 270.363 C 614.788 273.447, 619.627 276.990, 621.005 278.235 C 622.382 279.481, 626.657 283.050, 630.505 286.167 C 642.372 295.780, 664.565 320.126, 668.064 327.369 C 670.247 331.886, 670.064 334.319, 666.438 349 C 664.544 356.666, 644.648 415.851, 640.077 427.413 C 638.215 432.125, 640.283 432.643, 644.770 428.589 C 648.302 425.398, 648.805 424.371, 649.207 419.517 C 649.564 415.214, 650.232 413.515, 652.330 411.570 C 654.652 409.418, 655 408.313, 655 403.088 C 655 398.066, 655.391 396.705, 657.383 394.790 C 659.305 392.944, 659.867 391.159, 660.282 385.581 C 660.708 379.850, 661.197 378.360, 663.125 376.906 C 665.129 375.394, 665.507 374.090, 665.837 367.554 C 666.153 361.291, 666.580 359.707, 668.272 358.522 C 669.728 357.502, 670.550 355.404, 671.106 351.293 C 671.668 347.135, 672.469 345.113, 673.944 344.128 C 676.907 342.151, 676.851 334.710, 673.859 332.614 C 672.313 331.531, 671.585 329.737, 671.242 326.164 C 670.858 322.167, 670.308 321.006, 668.383 320.129 C 667.072 319.531, 666 318.329, 666 317.455 C 666 315.511, 653.908 303.423, 651.057 302.518 C 649.926 302.159, 649 301.231, 649 300.456 C 649 299.680, 647.922 298.340, 646.604 297.476 C 645.287 296.613, 643.980 295.033, 643.701 293.965 C 643.422 292.898, 642.025 291.580, 640.597 291.037 C 639.152 290.488, 637.997 289.262, 637.994 288.275 C 637.988 286.676, 634.297 283.771, 629.815 281.839 C 628.889 281.440, 627.635 280.187, 627.030 279.056 C 626.425 277.925, 625.326 277, 624.587 277 C 623.849 277, 622.667 276.304, 621.961 275.453 C 621.255 274.602, 618.387 272.763, 615.588 271.367 C 608.420 267.790, 605.997 266.397, 604.716 265.116 C 603.642 264.042, 602 263.596, 602 264.378 M 797.195 275.500 C 797.215 277.150, 797.439 277.704, 797.693 276.731 C 797.947 275.758, 797.930 274.408, 797.656 273.731 C 797.382 273.054, 797.175 273.850, 797.195 275.500 M 692.115 280.500 C 692.069 282.150, 692.467 284.175, 693 285 C 693.799 286.236, 693.955 286.148, 693.885 284.500 C 693.839 283.400, 693.440 281.375, 693 280 C 692.215 277.550, 692.198 277.560, 692.115 280.500 M 109.459 280.067 C 109.096 280.653, 109.014 281.348, 109.276 281.610 C 109.538 281.872, 110.019 281.392, 110.345 280.543 C 111.021 278.781, 110.445 278.471, 109.459 280.067 M 104.081 289.849 C 103.486 290.960, 103.018 292.461, 103.040 293.184 C 103.062 293.908, 103.772 293.223, 104.618 291.662 C 105.464 290.100, 105.933 288.599, 105.659 288.326 C 105.386 288.052, 104.676 288.738, 104.081 289.849 M 98.667 299.667 C 98.300 300.033, 98.014 301.271, 98.032 302.417 C 98.063 304.464, 98.089 304.466, 99.532 302.559 C 100.339 301.491, 101 300.254, 101 299.809 C 101 298.830, 99.589 298.744, 98.667 299.667 M 458.500 302.701 C 441.692 303.483, 427.881 306.351, 410 312.772 C 395.167 318.099, 388.719 321.234, 376 329.305 C 344.165 349.506, 319.801 378.524, 306.135 412.516 C 297.646 433.632, 293.987 452.537, 294.018 475.128 C 294.058 503.945, 300.121 528.772, 313.401 554.497 C 324.882 576.736, 343.708 598.998, 363.413 613.636 C 373.751 621.315, 375.793 622.349, 374 619 C 373.411 617.900, 372.383 616.998, 371.715 616.996 C 371.047 616.993, 368.269 614.968, 365.542 612.496 C 362.815 610.023, 359.988 608, 359.261 608 C 358.533 608, 357.678 607.325, 357.362 606.500 C 357.045 605.675, 356.171 605, 355.419 605 C 354.667 605, 353.353 603.650, 352.500 602 C 351.647 600.350, 350.294 599, 349.493 599 C 348.693 599, 347.754 597.870, 347.408 596.489 C 347.061 595.108, 345.478 593.052, 343.889 591.921 C 342.300 590.789, 341 589.230, 341 588.455 C 341 587.680, 339.875 586.309, 338.500 585.408 C 337.125 584.507, 336 582.912, 336 581.864 C 336 580.804, 334.897 579.455, 333.517 578.826 C 331.883 578.081, 330.825 576.583, 330.424 574.447 C 330.089 572.661, 328.732 570.258, 327.407 569.106 C 325.874 567.773, 325 565.935, 325 564.041 C 325 562.087, 323.972 560.017, 322 558 C 320.350 556.312, 319 554.057, 319 552.989 C 319 551.920, 317.875 550.309, 316.500 549.408 C 314.761 548.268, 314 546.865, 314 544.795 C 314 542.741, 313.071 541.005, 311 539.187 C 308.333 536.847, 308 535.929, 308 530.923 C 308 526.303, 307.551 524.808, 305.500 522.595 C 303.058 519.960, 302.994 519.495, 302.750 502.698 C 302.613 493.239, 302.663 474.475, 302.862 461 C 303.219 436.869, 303.260 436.470, 305.533 434.500 C 307.419 432.865, 307.909 431.278, 308.214 425.806 C 308.534 420.071, 308.975 418.752, 311.294 416.603 C 313.261 414.780, 314 413.121, 314 410.526 C 314 407.690, 314.513 406.723, 316.500 405.818 C 318.388 404.958, 319 403.916, 319 401.562 C 319 399.351, 319.871 397.681, 322 395.813 C 324.071 393.995, 325 392.259, 325 390.205 C 325 388.176, 325.756 386.735, 327.378 385.672 C 328.745 384.776, 330.021 382.702, 330.379 380.794 C 330.769 378.712, 331.829 377.105, 333.218 376.487 C 334.437 375.944, 335.674 374.519, 335.967 373.321 C 336.260 372.123, 337.527 370.098, 338.782 368.821 C 340.037 367.544, 344.215 363.238, 348.066 359.250 C 351.918 355.262, 355.431 352, 355.874 352 C 356.317 352, 357.192 350.875, 357.818 349.500 C 358.445 348.125, 359.651 347, 360.500 347 C 361.349 347, 362.509 345.988, 363.079 344.750 C 363.946 342.869, 372.434 337.124, 378 334.653 C 378.825 334.286, 382.200 332.216, 385.500 330.052 C 390.751 326.609, 400.365 321.546, 406.500 318.993 C 407.600 318.535, 411.539 316.775, 415.253 315.080 C 418.967 313.386, 423.242 311.986, 424.753 311.968 C 426.264 311.951, 428.374 311.276, 429.441 310.468 C 430.600 309.592, 433.623 308.994, 436.941 308.985 C 439.999 308.977, 444.300 308.321, 446.500 307.529 C 449.492 306.451, 455.668 306.088, 471 306.088 C 486.332 306.088, 492.508 306.451, 495.500 307.529 C 497.700 308.321, 501.525 308.991, 504 309.017 C 506.475 309.043, 509.374 309.724, 510.441 310.532 C 511.509 311.339, 514.010 312, 516 312 C 517.990 312, 520.491 312.661, 521.559 313.468 C 522.626 314.276, 524.557 314.951, 525.849 314.968 C 528.151 314.999, 529.335 315.456, 541.500 321.012 C 548.459 324.190, 551 325.119, 551 324.483 C 551 323.185, 530.903 314.337, 518.021 309.965 C 502.648 304.747, 478.330 301.779, 458.500 302.701 M 279.872 308.750 C 278.629 310.336, 278.664 310.371, 280.250 309.128 C 281.212 308.373, 282 307.585, 282 307.378 C 282 306.555, 281.179 307.084, 279.872 308.750 M 275.443 313.418 C 274.376 314.198, 273.768 315.101, 274.091 315.424 C 274.414 315.748, 275.496 315.110, 276.494 314.006 C 278.619 311.659, 278.183 311.415, 275.443 313.418 M 264 327.500 C 263.293 328.352, 262.940 329.273, 263.215 329.548 C 263.490 329.823, 264.293 329.352, 265 328.500 C 265.707 327.648, 266.060 326.727, 265.785 326.452 C 265.510 326.177, 264.707 326.648, 264 327.500 M 560.109 330.443 C 561.158 331.492, 568.146 336, 568.723 336 C 569.711 336, 561.615 330.059, 560.583 330.028 C 560.079 330.013, 559.866 330.199, 560.109 330.443 M 258.183 335.217 C 257.533 335.868, 257 337.085, 257 337.923 C 257 338.968, 257.502 338.728, 258.602 337.158 C 260.357 334.653, 260.071 333.329, 258.183 335.217 M 570.659 338.553 C 570.997 339.433, 572.224 340.564, 573.386 341.067 C 574.549 341.569, 576.625 342.707, 578 343.595 C 579.465 344.542, 579.051 343.897, 577 342.036 C 572.290 337.763, 569.839 336.417, 570.659 338.553 M 82.028 343.426 C 80.461 347.547, 80.962 348.962, 82.632 345.134 C 83.440 343.282, 83.866 341.532, 83.578 341.245 C 83.291 340.958, 82.593 341.939, 82.028 343.426 M 796.764 347 C 796.359 348.375, 796.066 351.525, 796.114 354 L 796.201 358.500 797.141 354.500 C 797.658 352.300, 797.950 349.150, 797.791 347.500 C 797.504 344.540, 797.490 344.534, 796.764 347 M 582 347.986 C 582 348.567, 583.125 349.555, 584.500 350.182 C 585.875 350.808, 587 352.158, 587 353.182 C 587 354.205, 588.116 355.552, 589.481 356.173 C 590.845 356.795, 592.226 358.135, 592.548 359.152 C 592.871 360.168, 593.599 361, 594.166 361 C 594.733 361, 596.503 362.398, 598.099 364.106 C 599.694 365.814, 601 366.789, 601 366.272 C 601 365.755, 597.577 361.648, 593.393 357.144 C 585.778 348.948, 582 345.911, 582 347.986 M 76.667 360.667 C 76.300 361.033, 76.029 362.271, 76.063 363.417 C 76.122 365.332, 76.204 365.307, 77.085 363.105 C 78.064 360.657, 77.861 359.472, 76.667 360.667 M 604 371.250 C 604 372.148, 604.480 373.179, 605.067 373.541 C 606.782 374.601, 606.950 373.652, 605.418 371.557 C 604.232 369.935, 604 369.885, 604 371.250 M 792.081 373.849 C 791.033 375.807, 790.502 384.832, 791.493 383.840 C 792.213 383.121, 794.085 372.752, 793.586 372.252 C 793.353 372.019, 792.676 372.738, 792.081 373.849 M 235.970 376.055 C 235.365 377.186, 235.045 378.636, 235.260 379.279 C 235.474 379.921, 236.154 378.996, 236.772 377.223 C 238.042 373.581, 237.622 372.969, 235.970 376.055 M 609 378.706 C 609 380.202, 612.066 383.268, 612.813 382.520 C 613.130 382.203, 612.401 380.957, 611.194 379.750 C 609.987 378.543, 609 378.073, 609 378.706 M 614.713 387.279 C 615.280 390.245, 618.016 393.257, 617.978 390.872 C 617.966 390.118, 617.112 388.402, 616.080 387.060 L 614.205 384.620 614.713 387.279 M 230.079 391.583 C 230.127 392.748, 230.364 392.985, 230.683 392.188 C 230.972 391.466, 230.936 390.603, 230.604 390.271 C 230.272 389.939, 230.036 390.529, 230.079 391.583 M 620.564 397.293 C 620.940 398.279, 621.499 398.834, 621.807 398.526 C 622.115 398.219, 621.808 397.412, 621.124 396.733 C 620.136 395.753, 620.022 395.868, 620.564 397.293 M 626 410.178 C 626 411.595, 626.750 413.373, 627.666 414.128 C 629.175 415.371, 629.262 415.217, 628.595 412.500 C 627.578 408.357, 626 406.945, 626 410.178 M 65.624 410.539 C 65.281 411.432, 65.053 413.814, 65.118 415.832 C 65.226 419.209, 65.301 419.105, 66.066 414.532 C 66.920 409.425, 66.725 407.668, 65.624 410.539 M 631.458 423.969 C 632.117 427.915, 634.021 430.559, 633.965 427.450 C 633.945 426.377, 633.243 424.375, 632.404 423 L 630.879 420.500 631.458 423.969 M 219.667 426.667 C 219.300 427.033, 219.045 428.946, 219.100 430.917 L 219.201 434.500 220.116 430.599 C 221.038 426.671, 220.897 425.436, 219.667 426.667 M 665.734 427.973 C 664.781 429.332, 664 431.607, 664 433.028 C 664 434.449, 662.875 437.136, 661.500 439 C 659.516 441.689, 659.011 443.535, 659.053 447.944 L 659.107 453.500 663.550 441 C 668.148 428.066, 668.926 423.423, 665.734 427.973 M 791.185 437 C 791.161 440.575, 791.527 444.400, 792 445.500 C 793.157 448.192, 793.199 440.021, 792.057 434.500 C 791.289 430.785, 791.227 430.963, 791.185 437 M 60.641 449.210 C 59.798 452.358, 60.024 462.954, 61 466 C 61.705 468.203, 61.823 468.024, 61.984 464.500 C 62.289 457.865, 62.101 447.768, 61.664 447.331 C 61.438 447.105, 60.978 447.951, 60.641 449.210 M 654.119 463.315 C 652.497 467.394, 652.820 468.979, 654.603 465.690 C 655.441 464.145, 655.927 462.345, 655.683 461.690 C 655.438 461.036, 654.735 461.767, 654.119 463.315 M 648.684 479.382 C 648.308 480.362, 648.029 481.914, 648.063 482.832 C 648.105 483.937, 648.453 483.685, 649.092 482.086 C 649.623 480.758, 649.902 479.206, 649.712 478.636 C 649.522 478.067, 649.059 478.403, 648.684 479.382 M 64.500 497.500 C 65.128 505.529, 67.221 512.112, 68.682 510.652 C 69.228 510.105, 65.111 489.870, 64.277 489 C 64.013 488.725, 64.114 492.550, 64.500 497.500 M 70.343 520.353 C 70.593 523.139, 71.507 525.908, 72.489 526.853 C 74.096 528.399, 74.157 528.290, 73.487 525.095 C 73.094 523.222, 72.128 520.297, 71.341 518.595 L 69.909 515.500 70.343 520.353 M 791.764 519 C 791.359 520.375, 791.066 524.425, 791.114 528 C 791.198 534.299, 791.230 534.376, 792.140 530.500 C 793.280 525.647, 792.932 515.032, 791.764 519 M 219.115 522 C 219.069 523.375, 219.467 525.175, 220 526 C 220.862 527.333, 220.960 527.333, 220.885 526 C 220.839 525.175, 220.440 523.375, 220 522 L 219.199 519.500 219.115 522 M 76 540.881 C 76 546.225, 76.350 547.420, 78.500 549.412 C 79.875 550.687, 81 552.848, 81 554.216 C 81 555.615, 82.312 558.077, 84 559.843 C 85.650 561.569, 87 563.807, 87 564.817 C 87 565.826, 88.125 567.708, 89.500 569 C 90.875 570.292, 92 572.170, 92 573.174 C 92 574.178, 92.918 575.918, 94.040 577.040 C 96.669 579.669, 98 583.237, 98 587.654 C 98 590.522, 98.847 592.002, 102.545 595.596 C 107.431 600.344, 111.801 603.532, 112.487 602.847 C 112.720 602.613, 108.850 596.140, 103.887 588.461 C 95.548 575.560, 85.677 556.719, 79.384 541.693 C 77.957 538.287, 76.612 535.313, 76.395 535.083 C 76.178 534.854, 76 537.463, 76 540.881 M 224.086 543 C 224.055 544.375, 224.467 546.175, 225 547 C 225.800 548.238, 225.960 548.151, 225.914 546.500 C 225.884 545.400, 225.473 543.600, 225 542.500 C 224.213 540.668, 224.136 540.710, 224.086 543 M 786.206 553.684 C 785.543 554.886, 785.037 557.136, 785.082 558.684 L 785.163 561.500 786.632 558.133 C 788.441 553.987, 788.086 550.280, 786.206 553.684 M 230.097 561 C 230.024 563.744, 231.538 566.796, 232.496 565.837 C 232.829 565.505, 232.440 563.718, 231.632 561.866 C 230.277 558.762, 230.158 558.694, 230.097 561 M 235.017 573.559 C 234.997 576.018, 237.541 579.793, 238.543 578.790 C 238.932 578.402, 238.301 576.602, 237.142 574.792 C 235.405 572.079, 235.031 571.862, 235.017 573.559 M 780.374 577.467 C 780.065 578.274, 780.004 579.511, 780.240 580.217 C 780.476 580.923, 780.906 580.263, 781.196 578.750 C 781.762 575.797, 781.295 575.068, 780.374 577.467 M 241 584.267 C 241 585.764, 243.712 588.624, 244.438 587.893 C 244.652 587.677, 243.967 586.438, 242.914 585.139 C 241.610 583.531, 241 583.253, 241 584.267 M 246.177 590.669 C 246.511 592.397, 248.957 594.093, 257.500 598.520 C 260.250 599.945, 265.778 602.882, 269.785 605.047 C 273.791 607.211, 279.416 609.706, 282.285 610.591 C 285.153 611.476, 290.376 613.526, 293.891 615.146 C 297.407 616.767, 301.007 617.949, 301.891 617.774 C 302.776 617.598, 300.800 616.384, 297.500 615.075 C 286.869 610.859, 265.346 600.753, 261 597.936 C 251.883 592.027, 246.952 589, 246.442 589 C 246.118 589, 245.999 589.751, 246.177 590.669 M 83.250 598.662 C 82.563 598.940, 82.003 599.917, 82.007 600.833 C 82.017 602.933, 92.872 618.535, 102.210 629.869 C 111.245 640.836, 138.666 668.276, 146.388 674.077 C 167.150 689.675, 178.607 697.872, 186.500 702.777 C 197.257 709.463, 213.944 718.390, 214.550 717.784 C 214.788 717.546, 212.849 716.245, 210.241 714.892 C 207.633 713.539, 202.322 710.350, 198.437 707.804 C 190.922 702.879, 181.956 697.650, 178.250 696.032 C 177.012 695.492, 176 694.388, 176 693.579 C 176 692.217, 174.531 691.160, 168 687.819 C 166.625 687.116, 165.275 686.261, 165 685.920 C 164.725 685.579, 163.488 684.766, 162.250 684.115 C 161.012 683.463, 160 682.247, 160 681.413 C 160 680.579, 158.650 679.425, 157 678.850 C 155.350 678.275, 154 677.286, 154 676.652 C 154 675.223, 148.209 670.518, 145.321 669.602 C 144.146 669.229, 142.932 668.266, 142.624 667.462 C 142.315 666.658, 141.446 666, 140.692 666 C 139.938 666, 138.826 664.914, 138.221 663.587 C 137.617 662.259, 136.194 660.879, 135.061 660.519 C 133.927 660.160, 133 659.231, 133 658.456 C 133 657.680, 131.875 656.309, 130.500 655.408 C 129.126 654.508, 126.313 652.205, 124.250 650.292 C 122.188 648.379, 119.487 646.417, 118.250 645.932 C 117.013 645.447, 116 644.374, 116 643.548 C 116 642.722, 114.909 641.331, 113.575 640.457 C 112.241 639.583, 110.702 637.583, 110.154 636.011 C 109.606 634.440, 108.222 632.654, 107.079 632.042 C 105.936 631.430, 105 630.305, 105 629.542 C 105 628.778, 103.869 626.809, 102.487 625.166 C 101.104 623.523, 99.584 620.098, 99.109 617.554 C 98.634 615.009, 97.536 612.145, 96.670 611.188 C 95.804 610.231, 94.787 607.435, 94.411 604.974 C 94.035 602.513, 93.283 599.938, 92.741 599.250 C 91.779 598.030, 85.743 597.656, 83.250 598.662 M 114 605.723 C 114 606.981, 116.858 609.475, 117.530 608.803 C 117.795 608.538, 117.110 607.504, 116.006 606.506 C 114.903 605.507, 114 605.155, 114 605.723 M 80.353 608.332 C 80.709 609.339, 81 612.397, 81 615.127 C 81 619.111, 81.502 620.593, 83.543 622.634 C 84.941 624.032, 86.349 626.496, 86.672 628.109 C 87.303 631.263, 89 633.091, 89 630.616 C 89 628.426, 81.934 608.677, 80.729 607.500 C 80.036 606.823, 79.915 607.091, 80.353 608.332 M 119.720 613.280 C 120.009 614.809, 121.128 616.533, 122.208 617.111 C 125.263 618.747, 125.220 617.686, 122.077 613.937 L 119.196 610.500 119.720 613.280 M 243 616.444 C 243 616.922, 258.687 626, 259.512 626 C 261.157 626, 258.479 623.932, 254.244 621.932 C 251.635 620.700, 248.825 619.155, 248 618.498 C 246.382 617.210, 243 615.821, 243 616.444 M 305.523 619.037 C 305.850 619.567, 306.605 620, 307.199 620 C 307.794 620, 310.130 620.864, 312.390 621.919 C 320.088 625.514, 326.886 627.394, 338.500 629.137 C 342.350 629.715, 345.927 630.596, 346.450 631.094 C 346.972 631.592, 348.899 632, 350.732 632 C 352.565 632, 355.680 632.675, 357.654 633.500 C 359.629 634.325, 363.327 635.016, 365.872 635.035 C 368.417 635.055, 371.625 635.714, 373 636.500 C 375.902 638.159, 394.513 638.597, 395.482 637.029 C 396.255 635.778, 393.564 635.256, 382.500 634.513 C 367.396 633.498, 354.065 631.171, 333.837 626.018 C 323.202 623.309, 312.346 620.413, 309.714 619.583 C 307.081 618.753, 305.195 618.507, 305.523 619.037 M 125.649 620.528 C 125.971 621.368, 127.195 622.554, 128.368 623.163 C 130.329 624.183, 130.306 624.060, 128.076 621.636 C 125.287 618.604, 124.831 618.396, 125.649 620.528 M 131.177 626.637 C 131.355 627.538, 132.612 628.685, 133.971 629.187 L 136.442 630.099 134.046 627.549 C 131.247 624.569, 130.736 624.407, 131.177 626.637 M 261 626.393 C 261 626.609, 261.698 627.054, 262.552 627.382 C 263.442 627.723, 263.843 627.555, 263.493 626.989 C 262.906 626.038, 261 625.583, 261 626.393 M 265 628.430 C 265 629.051, 272.986 633, 274.242 633 C 274.892 633, 273.750 632.147, 271.705 631.105 C 267.235 628.825, 265 627.934, 265 628.430 M 387 628.430 C 387 628.705, 387.900 629.411, 389 630 C 390.100 630.589, 391 630.845, 391 630.570 C 391 630.295, 390.100 629.589, 389 629 C 387.900 628.411, 387 628.155, 387 628.430 M 136 632.309 C 136 633.029, 136.563 634.315, 137.250 635.167 C 139.085 637.441, 154.640 650, 155.622 650 C 156.083 650, 152.203 645.725, 147 640.500 C 137.541 631.001, 136 629.854, 136 632.309 M 392.733 632.124 C 393.412 632.808, 394.219 633.115, 394.526 632.807 C 394.834 632.499, 394.279 631.940, 393.293 631.564 C 391.868 631.022, 391.753 631.136, 392.733 632.124 M 286.865 638.539 C 288.715 639.343, 290.740 639.963, 291.365 639.919 C 292.943 639.806, 286.848 637.092, 285 637.084 C 284.175 637.081, 285.014 637.736, 286.865 638.539 M 303 643.909 C 303.825 644.376, 305.625 645.061, 307 645.431 C 309.402 646.077, 309.424 646.043, 307.559 644.552 C 306.491 643.698, 304.691 643.014, 303.559 643.030 C 301.915 643.055, 301.802 643.232, 303 643.909 M 98.035 654.691 C 98.016 655.896, 98.480 657.179, 99.067 657.541 C 100.791 658.607, 100.934 657.673, 99.454 654.998 C 98.120 652.589, 98.070 652.578, 98.035 654.691 M 349.813 655.683 C 350.534 655.972, 351.397 655.936, 351.729 655.604 C 352.061 655.272, 351.471 655.036, 350.417 655.079 C 349.252 655.127, 349.015 655.364, 349.813 655.683 M 103.032 664.559 C 103.014 665.141, 103.661 666.491, 104.468 667.559 C 105.276 668.626, 105.951 669.024, 105.968 668.441 C 105.986 667.859, 105.339 666.509, 104.532 665.441 C 103.724 664.374, 103.049 663.976, 103.032 664.559 M 120.047 696.500 C 120.023 697.986, 121.808 700.526, 122.435 699.898 C 122.735 699.599, 122.323 698.487, 121.521 697.427 C 120.720 696.367, 120.056 695.950, 120.047 696.500 M 125 706.429 C 125 708.780, 127.290 712, 128.963 712 C 129.414 712, 130.052 713.070, 130.380 714.377 C 130.708 715.685, 132.107 717.495, 133.488 718.400 C 134.870 719.306, 136 720.679, 136 721.452 C 136 722.965, 138.961 726.373, 139.664 725.669 C 140.118 725.215, 126.194 704, 125.443 704 C 125.199 704, 125 705.093, 125 706.429 M 230 725.373 C 230 726.059, 236.488 729.431, 239.750 730.439 C 243.731 731.670, 242.137 729.558, 237.746 727.785 C 231.009 725.063, 230 724.749, 230 725.373 M 142 729.540 C 142 730.460, 143.125 732.097, 144.500 733.179 C 145.875 734.260, 147 736.066, 147 737.191 C 147 738.939, 158.938 752, 160.536 752 C 161.019 752, 159.415 749.891, 146.750 733.874 C 144.038 730.445, 142 728.585, 142 729.540 M 244 732 C 244.825 732.533, 246.175 732.945, 247 732.914 C 247.989 732.878, 247.819 732.567, 246.500 732 C 243.751 730.819, 242.172 730.819, 244 732 M 256.738 737.250 C 259.570 739.038, 268.286 745.368, 276.108 751.317 C 283.929 757.267, 296.819 765.973, 304.751 770.666 C 317.336 778.110, 324.631 781.845, 342.581 790.034 C 347.680 792.360, 356.879 796, 357.659 796 C 359.083 796, 355.584 792.997, 354.128 792.968 C 353.232 792.951, 351.626 792.276, 350.559 791.468 C 349.491 790.661, 347.784 790, 346.764 790 C 344.751 790, 329.283 782.589, 316.500 775.501 C 312.100 773.061, 307.392 770.488, 306.038 769.783 C 304.685 769.077, 302.010 767.067, 300.096 765.316 C 298.181 763.565, 294.339 760.942, 291.557 759.487 C 288.776 758.032, 285.150 755.983, 283.500 754.933 C 281.850 753.883, 279.820 752.681, 278.989 752.262 C 277.473 751.497, 276.575 750.718, 267.688 742.463 C 263.173 738.270, 255.687 734, 252.849 734 C 252.156 734, 253.906 735.462, 256.738 737.250 M 164.007 756.576 C 164.003 757.167, 165.125 758.708, 166.500 760 C 167.875 761.292, 169 763.154, 169 764.139 C 169 765.124, 169.986 766.457, 171.191 767.102 C 172.396 767.747, 174.984 769.832, 176.941 771.734 C 178.898 773.637, 181.322 775.634, 182.326 776.172 C 183.906 777.020, 184.008 776.906, 183.083 775.326 C 181.414 772.472, 164.015 755.370, 164.007 756.576 M 185.490 779.095 C 188.385 784.186, 204.260 798.073, 205.625 796.709 C 206.034 796.300, 188.475 779.957, 186.095 778.532 C 185.064 777.915, 184.903 778.064, 185.490 779.095 M 359 796.383 C 359 796.594, 359.901 797.002, 361.001 797.290 C 362.102 797.578, 362.751 797.405, 362.442 796.907 C 361.904 796.036, 359 795.594, 359 796.383 M 369.500 800 C 372.249 801.181, 373.828 801.181, 372 800 C 371.175 799.467, 369.825 799.055, 369 799.086 C 368.011 799.122, 368.181 799.433, 369.500 800" stroke="none" fill="black" fill-rule="evenodd"/>
</svg>