<?xml version="1.0" standalone="no"?>
<!DOCTYPE svg PUBLIC "-//W3C//DTD SVG 20010904//EN"
 "http://www.w3.org/TR/2001/REC-SVG-20010904/DTD/svg10.dtd">
<svg version="1.0" xmlns="http://www.w3.org/2000/svg"
 width="976.000000pt" height="929.000000pt" viewBox="0 0 976.000000 929.000000"
 preserveAspectRatio="xMidYMid meet">

<g transform="translate(0.000000,929.000000) scale(0.100000,-0.100000)"
fill="#000000" stroke="none">
<path d="M5888 8453 c6 -2 18 -2 25 0 6 3 1 5 -13 5 -14 0 -19 -2 -12 -5z"/>
<path d="M6395 8247 c432 -224 742 -491 978 -841 69 -102 176 -304 220 -416
42 -107 105 -338 122 -450 23 -142 31 -474 16 -609 -29 -251 -83 -484 -171
-731 -29 -80 -114 -327 -190 -550 -345 -1005 -348 -1014 -420 -1164 -82 -173
-244 -421 -366 -561 -317 -365 -769 -657 -1274 -821 -122 -40 -181 -57 -350
-99 -236 -59 -514 -86 -875 -86 -160 0 -298 2 -305 5 -8 3 -69 10 -135 16
-223 20 -527 79 -760 149 -54 17 -101 29 -103 26 -6 -6 30 -21 98 -39 36 -10
80 -24 98 -32 18 -8 44 -14 58 -14 14 0 34 -5 45 -11 11 -6 41 -14 67 -19 103
-20 159 -33 195 -46 20 -8 74 -14 118 -14 44 0 90 -5 101 -11 12 -6 60 -15
107 -20 47 -5 111 -13 141 -18 73 -13 423 -12 530 0 47 6 137 14 200 18 63 4
128 13 143 19 16 7 57 12 93 12 36 0 81 7 101 15 19 8 55 15 80 15 24 0 60 7
80 15 19 8 50 15 67 15 17 0 40 6 51 13 11 7 47 21 80 31 33 10 88 32 122 47
35 16 71 29 82 29 11 0 63 20 115 45 53 25 103 45 111 45 8 0 23 4 33 10 9 5
42 21 72 35 30 15 82 42 115 61 33 18 69 38 80 43 11 5 28 17 37 28 27 29 47
44 99 72 27 14 63 40 81 56 18 17 68 51 110 75 43 25 80 52 83 60 3 8 28 29
55 45 27 17 50 35 50 41 0 14 136 154 149 154 5 0 14 13 19 29 6 16 19 34 31
40 11 6 23 21 27 33 4 13 17 33 30 45 13 12 24 31 24 43 0 12 10 25 25 32 18
8 25 19 25 39 0 16 7 34 15 41 39 33 45 41 45 64 0 16 8 28 24 35 16 8 26 23
30 44 4 19 17 40 31 49 20 13 25 25 25 56 0 31 5 43 24 55 18 12 25 28 30 69
5 38 14 60 32 77 19 17 24 33 24 69 0 36 5 52 24 69 15 15 25 37 29 67 3 31
13 52 31 69 22 20 26 33 26 79 0 45 4 59 24 78 18 18 25 37 28 80 4 46 10 62
31 82 23 22 27 33 27 85 0 48 5 65 24 88 15 19 25 45 28 80 4 41 11 59 32 78
23 21 26 32 26 89 0 55 3 67 22 80 15 11 23 31 29 73 6 42 14 63 30 76 19 15
24 32 29 98 4 66 9 84 27 97 14 12 22 32 26 65 3 34 13 57 31 76 22 23 26 36
26 89 0 50 4 65 24 86 19 21 24 40 29 106 4 59 11 89 28 117 22 35 23 50 31
292 4 141 4 362 0 491 -7 219 -9 237 -29 265 -22 30 -28 77 -25 172 2 35 8 46
37 69 l36 27 39 -18 c22 -10 42 -26 46 -37 3 -10 19 -32 35 -49 16 -16 29 -39
29 -49 0 -11 5 -20 11 -20 6 0 8 8 5 18 -3 9 -10 37 -16 62 -6 25 -20 75 -31
113 l-20 67 -75 0 c-55 0 -85 5 -114 20 -22 11 -40 24 -40 29 0 4 -13 22 -30
39 -16 18 -30 38 -30 45 0 7 -11 23 -25 35 -14 12 -25 30 -25 40 0 10 -13 31
-30 47 -16 16 -30 37 -30 47 0 10 -11 28 -25 40 -16 13 -25 32 -25 50 0 18 -8
33 -25 44 -14 9 -28 27 -31 39 -3 12 -16 27 -30 34 -13 6 -24 18 -24 26 0 8
-11 20 -24 26 -14 7 -27 22 -30 35 -3 12 -14 25 -25 29 -10 3 -23 16 -29 29
-6 13 -20 27 -30 30 -11 4 -22 15 -25 26 -3 11 -17 24 -31 30 -14 5 -26 16
-26 24 0 9 -13 22 -30 31 -16 9 -30 21 -30 28 0 13 -73 67 -91 67 -4 0 -13 8
-18 18 -5 10 -29 31 -53 47 -24 16 -63 46 -88 66 -25 20 -63 47 -85 59 -22 12
-54 30 -71 40 -71 42 -345 180 -357 180 -6 0 51 -33 128 -73z"/>
<path d="M4405 7844 c-216 -23 -534 -90 -755 -159 -560 -177 -1093 -541 -1498
-1024 -370 -441 -606 -952 -716 -1551 -49 -267 -37 -604 31 -810 30 -94 107
-280 115 -280 4 0 8 26 8 57 0 48 -4 61 -27 85 -22 23 -27 40 -32 104 -5 59
-11 79 -26 90 -19 14 -20 30 -23 400 l-3 386 24 42 c20 33 25 59 29 133 4 80
7 96 28 118 20 21 25 39 29 110 5 71 9 87 27 99 13 10 23 30 27 56 3 26 15 50
31 65 20 18 26 34 26 64 0 32 5 44 24 56 16 11 25 28 29 56 3 25 16 52 31 68
15 15 26 39 26 54 0 17 9 32 25 43 14 9 25 22 25 30 0 7 14 29 30 47 17 20 30
46 30 61 0 16 9 31 24 42 14 8 28 28 31 44 3 16 17 36 31 44 13 9 24 25 24 34
0 10 14 31 30 47 17 16 30 36 30 45 0 9 11 22 25 28 14 6 25 20 25 30 0 10 11
24 25 30 14 6 25 17 25 24 0 7 11 24 25 38 67 66 95 101 95 115 0 8 11 21 25
27 14 6 25 19 25 30 0 10 4 18 10 18 9 0 91 72 134 117 28 30 90 91 129 128
18 17 49 39 69 49 20 11 39 28 41 38 3 10 16 23 29 28 42 19 104 60 170 111
26 20 66 46 90 58 24 12 59 32 78 43 81 48 325 167 353 174 17 3 38 10 47 14
76 36 232 90 280 97 19 3 44 12 55 19 11 8 36 14 56 14 20 0 53 7 72 15 20 8
53 15 74 15 21 1 49 7 63 15 14 8 51 14 83 15 32 0 68 5 80 12 45 25 399 37
712 25 101 -4 129 -3 100 4 -41 10 -606 20 -680 13z"/>
<path d="M5179 7805 c18 -8 54 -15 80 -14 46 1 46 1 11 9 -19 4 -55 10 -80 14
l-45 6 34 -15z"/>
<path d="M5355 7770 c11 -5 34 -8 50 -8 29 0 29 0 5 8 -14 4 -36 8 -50 8 -23
1 -23 0 -5 -8z"/>
<path d="M5500 7740 c8 -5 24 -9 35 -9 l20 0 -20 9 c-11 5 -27 9 -35 9 -13 1
-13 0 0 -9z"/>
<path d="M5610 7710 c8 -5 22 -9 30 -9 10 0 8 3 -5 9 -27 12 -43 12 -25 0z"/>
<path d="M6270 7406 c0 -2 8 -10 18 -17 15 -13 16 -12 3 4 -13 16 -21 21 -21
13z"/>
<path d="M6322 7364 c10 -10 20 -16 22 -13 3 3 -5 11 -17 18 -21 13 -21 12 -5
-5z"/>
<path d="M6550 7171 c0 -5 5 -13 10 -16 6 -3 10 -2 10 4 0 5 -4 13 -10 16 -5
3 -10 2 -10 -4z"/>
<path d="M6600 7116 c0 -2 8 -10 18 -17 15 -13 16 -12 3 4 -13 16 -21 21 -21
13z"/>
<path d="M7930 6992 c0 -4 16 -30 35 -57 177 -252 314 -505 439 -807 104 -251
157 -439 251 -893 26 -126 44 -267 61 -485 42 -560 -42 -1162 -241 -1714 -173
-480 -452 -946 -789 -1318 -678 -750 -1550 -1205 -2550 -1334 -261 -33 -680
-28 -983 11 -315 42 -755 161 -1043 284 -109 46 -389 190 -508 260 -114 67
-129 65 -24 -2 88 -57 177 -106 342 -187 116 -57 201 -93 425 -177 22 -9 54
-21 70 -28 17 -7 57 -21 90 -31 33 -10 65 -21 70 -25 6 -4 30 -10 55 -14 24
-4 51 -11 60 -16 8 -5 42 -13 75 -18 33 -6 94 -17 135 -26 158 -34 239 -46
348 -55 63 -5 130 -14 150 -20 51 -14 596 -13 647 1 22 6 82 15 135 20 126 11
369 55 385 70 5 5 21 9 36 9 29 0 115 24 167 46 18 8 45 14 60 14 16 0 37 7
48 15 10 8 32 15 47 15 16 0 43 6 60 14 18 8 59 23 92 34 33 11 83 31 110 45
28 13 77 33 110 43 68 22 201 88 455 227 30 17 69 37 85 46 35 18 48 27 83 62
15 15 47 38 72 52 25 15 60 40 79 57 18 17 58 45 87 62 30 16 68 43 86 59 17
17 51 42 75 55 23 14 43 32 43 40 0 7 14 20 30 29 17 9 30 22 30 31 0 8 8 17
18 21 9 3 36 25 58 49 23 23 51 47 63 53 12 7 21 18 21 27 0 8 11 20 25 26 14
6 25 15 25 19 0 5 15 24 33 43 17 19 37 40 44 48 7 7 18 19 25 26 7 6 27 28
43 47 17 20 42 49 58 64 15 16 27 36 27 45 0 9 11 21 24 27 14 7 27 21 30 34
3 12 17 27 31 33 14 6 25 18 25 26 0 8 9 21 20 29 11 7 26 29 34 48 8 19 24
42 35 51 12 10 21 27 21 38 0 11 11 27 24 35 14 10 27 30 30 50 4 19 11 35 16
35 17 0 40 32 40 56 0 16 8 28 24 35 16 8 26 23 30 44 4 19 17 40 31 49 18 12
25 25 25 49 0 22 8 41 24 56 15 14 26 38 30 68 3 26 16 57 31 75 18 22 25 41
25 74 0 37 4 46 24 56 18 7 27 22 31 48 4 21 17 48 31 61 20 19 24 32 24 85 0
51 4 68 24 91 16 20 25 44 28 84 3 43 11 65 31 89 24 28 27 40 27 110 0 68 3
82 24 107 19 24 24 42 28 119 4 76 9 97 29 123 23 31 24 43 29 209 5 159 8
181 28 217 21 38 22 49 22 316 0 263 -1 279 -22 325 -18 41 -23 75 -28 204 -6
136 -9 159 -29 192 -18 30 -23 56 -28 155 -5 107 -8 120 -29 141 -21 20 -24
32 -24 93 0 63 -3 72 -27 95 -22 20 -28 36 -31 87 -4 46 -11 69 -28 90 -19 23
-24 40 -24 87 0 48 -5 64 -25 88 -14 17 -28 45 -31 64 -4 18 -17 43 -30 56
-13 13 -24 34 -24 47 0 13 -11 32 -25 43 -18 14 -27 34 -31 66 -5 32 -13 50
-30 61 -20 13 -24 24 -24 66 0 40 -5 54 -25 73 -14 13 -28 38 -31 55 -4 21
-16 37 -30 43 -17 8 -24 19 -24 39 0 19 -8 34 -25 45 -15 10 -27 30 -31 52 -4
20 -17 44 -29 54 -13 10 -26 29 -29 42 -3 14 -15 27 -26 31 -10 3 -22 16 -26
28 -4 11 -24 38 -46 59 -41 39 -48 44 -48 30z"/>
<path d="M6129 6572 c125 -86 310 -258 442 -409 111 -129 133 -170 124 -232
-11 -75 -43 -195 -89 -330 -166 -480 -207 -604 -204 -611 2 -5 18 5 37 22 29
26 36 41 42 87 6 40 14 61 31 74 18 15 23 31 26 85 3 52 9 73 27 92 16 18 24
43 29 88 4 48 12 72 31 94 21 25 25 40 25 92 0 53 4 66 24 85 17 16 25 37 28
72 3 32 13 58 27 72 28 30 28 80 0 106 -14 12 -23 37 -27 66 -4 37 -10 49 -28
57 -13 6 -24 20 -24 30 0 20 -53 78 -89 97 -11 7 -21 19 -21 27 0 8 -13 20
-30 25 -16 6 -30 17 -30 24 0 7 -11 20 -24 29 -14 8 -27 24 -30 34 -4 11 -18
24 -31 30 -14 6 -25 18 -25 26 0 9 -10 21 -22 27 -12 6 -27 16 -32 20 -86 70
-125 99 -133 99 -6 0 -16 6 -22 14 -6 8 -22 16 -34 19 -21 5 -21 5 2 -11z"/>
<path d="M4425 6245 c-232 -36 -473 -124 -637 -232 -42 -28 -81 -52 -86 -54
-31 -11 -186 -146 -278 -242 -138 -144 -220 -261 -304 -432 -118 -242 -166
-422 -177 -675 -16 -376 96 -759 311 -1062 70 -98 183 -228 199 -228 16 0 5
21 -23 47 -16 14 -30 32 -30 40 0 7 -11 19 -25 25 -16 7 -25 19 -25 33 0 13
-9 26 -24 33 -17 7 -27 22 -31 46 -4 18 -18 43 -31 55 -15 13 -24 32 -24 50 0
28 -22 61 -40 61 -5 0 -12 16 -16 35 -3 20 -16 40 -30 50 -16 10 -24 25 -24
45 0 17 -8 34 -18 42 -29 20 -42 52 -42 103 0 35 -6 54 -23 75 -23 27 -24 36
-30 256 -3 126 -3 315 0 419 5 179 7 191 28 215 17 19 24 41 27 88 3 50 9 67
31 90 18 18 27 39 27 60 0 23 7 36 25 48 16 11 25 26 25 43 0 17 11 38 30 56
21 20 30 38 30 60 0 24 6 35 24 43 17 7 27 22 31 45 5 23 15 38 31 46 13 6 24
19 24 29 0 10 14 31 30 47 17 16 30 35 30 42 0 7 4 13 9 13 5 0 34 25 65 55
30 30 59 55 65 55 5 0 13 9 16 21 4 11 18 25 31 31 13 6 24 17 24 24 0 11 32
34 110 77 19 11 47 28 61 38 14 10 64 40 110 66 79 45 106 58 219 105 25 10
53 23 62 28 10 6 30 10 45 10 16 1 39 7 53 15 14 8 47 14 73 15 26 0 64 7 84
15 28 12 84 15 268 15 181 0 242 -3 275 -15 23 -8 59 -15 79 -15 20 -1 47 -7
61 -15 14 -8 38 -14 53 -15 15 0 42 -7 58 -16 17 -8 38 -14 47 -12 42 9 -187
78 -343 103 -110 18 -396 18 -510 0z"/>
<path d="M5387 6099 c7 -7 15 -10 18 -7 3 3 -2 9 -12 12 -14 6 -15 5 -6 -5z"/>
<path d="M5440 6076 c0 -2 7 -7 16 -10 8 -3 12 -2 9 4 -6 10 -25 14 -25 6z"/>
<path d="M5720 5896 c0 -2 7 -7 16 -10 8 -3 12 -2 9 4 -6 10 -25 14 -25 6z"/>
<path d="M5835 5800 c3 -5 8 -10 11 -10 2 0 4 5 4 10 0 6 -5 10 -11 10 -5 0
-7 -4 -4 -10z"/>
<path d="M5880 5758 c0 -9 7 -19 16 -22 25 -10 27 -1 4 19 -17 15 -20 16 -20
3z"/>
<path d="M5936 5696 c3 -8 13 -17 22 -21 13 -5 13 -2 -3 15 -21 24 -26 25 -19
6z"/>
<path d="M7921 5514 c0 -11 3 -14 6 -6 3 7 2 16 -1 19 -3 4 -6 -2 -5 -13z"/>
<path d="M6160 5401 c0 -5 5 -13 10 -16 6 -3 10 -2 10 4 0 5 -4 13 -10 16 -5
3 -10 2 -10 -4z"/>
<path d="M6270 5181 c0 -6 4 -13 10 -16 6 -3 7 1 4 9 -7 18 -14 21 -14 7z"/>
<path d="M6661 5002 c-6 -12 -11 -29 -10 -39 0 -11 6 -6 15 16 16 37 12 55 -5
23z"/>
<path d="M6616 4878 c-15 -20 -24 -89 -10 -76 7 8 34 98 29 98 -2 0 -11 -10
-19 -22z"/>
<path d="M7922 4880 c0 -14 2 -19 5 -12 2 6 2 18 0 25 -3 6 -5 1 -5 -13z"/>
<path d="M613 4725 c0 -27 2 -38 4 -22 2 15 2 37 0 50 -2 12 -4 0 -4 -28z"/>
<path d="M661 4258 c-1 -20 4 -40 9 -43 12 -7 12 32 0 60 -7 16 -9 13 -9 -17z"/>
<path d="M711 4080 c0 -8 4 -22 9 -30 12 -18 12 -2 0 25 -6 13 -9 15 -9 5z"/>
<path d="M7922 4050 c0 -19 2 -27 5 -17 2 9 2 25 0 35 -3 9 -5 1 -5 -18z"/>
<path d="M1590 4004 c0 -31 160 -270 260 -389 96 -113 180 -194 180 -172 0 10
-11 22 -25 29 -14 6 -27 23 -30 40 -4 17 -17 34 -31 40 -13 6 -24 16 -24 22 0
6 -25 33 -55 59 -30 27 -55 57 -55 67 0 10 -12 27 -26 37 -18 13 -27 31 -31
60 -4 30 -11 44 -29 52 -14 6 -24 19 -24 31 0 11 -11 27 -25 36 -14 9 -29 30
-33 47 -4 17 -17 33 -30 38 -12 5 -22 6 -22 3z"/>
<path d="M771 3869 c-1 -36 4 -50 24 -69 15 -14 25 -35 25 -52 0 -18 8 -33 25
-44 15 -9 27 -30 31 -50 6 -32 20 -52 30 -41 3 2 -22 60 -54 128 -32 68 -63
135 -69 149 -11 23 -12 22 -12 -21z"/>
<path d="M940 3540 c6 -11 13 -20 16 -20 2 0 0 9 -6 20 -6 11 -13 20 -16 20
-2 0 0 -9 6 -20z"/>
<path d="M2360 3545 c0 -5 5 -17 10 -25 5 -8 10 -10 10 -5 0 6 -5 17 -10 25
-5 8 -10 11 -10 5z"/>
<path d="M987 3433 c6 -53 15 -66 87 -126 57 -48 54 -38 -27 83 -66 99 -66 99
-60 43z"/>
<path d="M2050 3411 c0 -5 17 -21 38 -37 20 -16 50 -41 66 -56 32 -31 48 -36
40 -13 -4 8 -12 15 -20 15 -8 0 -19 9 -26 21 -15 23 -98 83 -98 70z"/>
<path d="M2475 3378 c6 -15 31 -30 163 -99 50 -27 100 -53 110 -59 35 -19 92
-39 92 -31 0 5 -35 23 -77 42 -43 19 -125 62 -182 96 -58 35 -106 63 -107 63
-2 0 -1 -6 1 -12z"/>
<path d="M831 3286 c-9 -10 2 -33 49 -102 77 -113 204 -268 208 -254 2 6 -10
23 -27 39 -17 16 -31 35 -31 43 0 7 -9 21 -19 30 -11 9 -23 36 -26 62 -4 24
-15 52 -26 62 -10 9 -21 37 -25 63 -4 25 -11 52 -16 59 -14 16 -73 15 -87 -2z"/>
<path d="M3480 3292 c0 -10 21 -32 32 -32 16 0 8 19 -12 30 -11 6 -20 7 -20 2z"/>
<path d="M2260 3236 c0 -5 139 -96 147 -96 12 0 -46 46 -94 75 -40 24 -53 29
-53 21z"/>
<path d="M3540 3232 c0 -8 125 -102 137 -102 9 0 -55 54 -104 87 -18 12 -33
19 -33 15z"/>
<path d="M821 3128 c-1 -22 6 -43 16 -54 25 -25 27 -2 4 48 l-19 43 -1 -37z"/>
<path d="M1210 3153 c0 -6 8 -17 18 -24 16 -13 16 -13 2 6 -8 11 -16 22 -17
24 -2 2 -3 0 -3 -6z"/>
<path d="M2978 3128 c5 -5 16 -8 23 -6 8 3 3 7 -10 11 -17 4 -21 3 -13 -5z"/>
<path d="M3704 3105 c11 -8 22 -12 25 -9 6 6 -19 24 -34 24 -5 -1 -1 -7 9 -15z"/>
<path d="M3135 3073 c19 -18 233 -76 264 -71 13 1 -31 17 -100 35 -68 18 -135
35 -149 39 -16 4 -21 3 -15 -3z"/>
<path d="M3490 2980 c14 -4 36 -8 50 -8 22 0 22 1 -5 8 -16 4 -39 8 -50 8 -16
0 -15 -2 5 -8z"/>
<path d="M1370 2961 c0 -10 112 -111 137 -124 10 -5 -16 23 -56 62 -78 74 -81
76 -81 62z"/>
<path d="M3600 2956 c19 -8 55 -15 81 -15 25 -1 50 -6 57 -13 16 -16 190 -24
204 -10 11 11 4 12 -187 32 -60 6 -128 13 -150 16 l-40 4 35 -14z"/>
<path d="M1220 2781 c0 -14 175 -176 258 -240 115 -88 112 -86 112 -68 0 9
-10 19 -22 23 -12 3 -38 23 -58 44 -19 20 -57 49 -84 64 -27 16 -51 37 -53 47
-3 10 -14 21 -25 25 -10 3 -23 17 -28 30 -5 13 -21 29 -35 34 -14 5 -28 16
-31 24 -6 16 -34 30 -34 17z"/>
<path d="M1590 2755 c0 -2 10 -10 23 -16 20 -11 21 -11 8 4 -13 16 -31 23 -31
12z"/>
<path d="M1646 2717 c14 -23 73 -69 84 -65 6 2 -12 20 -41 42 -28 21 -47 31
-43 23z"/>
<path d="M1750 2636 c0 -3 9 -10 20 -16 11 -6 20 -8 20 -6 0 3 -9 10 -20 16
-11 6 -20 8 -20 6z"/>
<path d="M1810 2588 c0 -7 21 -24 48 -37 26 -14 54 -30 62 -36 15 -12 59 -30
50 -21 -5 4 -124 85 -149 100 -6 4 -11 1 -11 -6z"/>
<path d="M2044 2441 c4 -6 35 -25 69 -43 34 -17 85 -45 112 -62 58 -37 155
-80 162 -72 3 3 -32 23 -78 45 -46 22 -126 63 -178 92 -52 29 -91 47 -87 40z"/>
<path d="M1625 2430 c3 -5 8 -10 11 -10 2 0 4 5 4 10 0 6 -5 10 -11 10 -5 0
-7 -4 -4 -10z"/>
<path d="M1654 2412 c2 -4 25 -22 50 -40 52 -37 64 -28 14 10 -34 25 -73 43
-64 30z"/>
<path d="M1820 2296 c0 -3 9 -10 20 -16 11 -6 20 -8 20 -6 0 3 -9 10 -20 16
-11 6 -20 8 -20 6z"/>
<path d="M1873 2263 c4 -6 30 -23 59 -38 64 -33 53 -19 -16 21 -27 15 -47 23
-43 17z"/>
<path d="M2479 2219 c46 -22 91 -39 99 -37 14 3 -157 79 -175 78 -5 -1 30 -19
76 -41z"/>
<path d="M1260 2224 c0 -15 27 -50 34 -43 4 3 -2 17 -13 30 -11 13 -20 19 -21
13z"/>
<path d="M2679 2144 c29 -13 63 -24 75 -23 11 0 -10 11 -49 24 -88 31 -95 31
-26 -1z"/>
<path d="M1317 2141 c3 -11 11 -22 19 -25 11 -4 11 0 -2 19 -20 30 -24 31 -17
6z"/>
<path d="M2325 2020 c3 -5 14 -10 23 -10 15 0 15 2 2 10 -20 13 -33 13 -25 0z"/>
<path d="M1480 1913 c0 -7 18 -32 40 -54 22 -23 40 -37 40 -33 -1 15 -79 100
-80 87z"/>
<path d="M2636 1876 c21 -19 41 -33 42 -31 5 5 -61 64 -72 65 -5 0 8 -15 30
-34z"/>
<path d="M2715 1810 c3 -5 11 -10 16 -10 6 0 7 5 4 10 -3 6 -11 10 -16 10 -6
0 -7 -4 -4 -10z"/>
<path d="M2845 1716 c39 -34 175 -118 175 -108 0 7 -97 73 -165 111 l-40 23
30 -26z"/>
<path d="M1700 1645 c0 -8 4 -15 10 -15 5 0 26 -15 47 -32 l38 -33 -30 36
c-39 47 -65 65 -65 44z"/>
<path d="M3100 1556 c0 -2 7 -7 16 -10 8 -3 12 -2 9 4 -6 10 -25 14 -25 6z"/>
<path d="M3150 1526 c0 -2 7 -7 16 -10 8 -3 12 -2 9 4 -6 10 -25 14 -25 6z"/>
<path d="M3210 1496 c0 -2 7 -7 16 -10 8 -3 12 -2 9 4 -6 10 -25 14 -25 6z"/>
<path d="M1920 1436 c0 -9 4 -16 10 -16 5 0 25 -16 44 -35 20 -19 41 -35 48
-35 7 0 8 3 3 8 -6 5 -31 28 -57 52 -34 29 -48 38 -48 26z"/>
<path d="M3480 1370 c8 -5 20 -10 25 -10 6 0 3 5 -5 10 -8 5 -19 10 -25 10 -5
0 -3 -5 5 -10z"/>
<path d="M2200 1196 c0 -2 7 -7 16 -10 8 -3 12 -2 9 4 -6 10 -25 14 -25 6z"/>
<path d="M2252 1164 c10 -10 20 -16 22 -13 3 3 -5 11 -17 18 -21 13 -21 12 -5
-5z"/>
<path d="M2310 1126 c0 -2 8 -10 18 -17 15 -13 16 -12 3 4 -13 16 -21 21 -21
13z"/>
<path d="M2354 1091 c7 -11 46 -35 46 -28 0 3 -12 12 -26 22 -15 9 -23 12 -20
6z"/>
<path d="M2422 1044 c10 -10 20 -15 24 -12 3 4 -5 12 -18 18 -22 12 -22 12 -6
-6z"/>
</g>
</svg>
